name analog
datacolumns 19
datarows 56
range 0.2795 0.307
endheader
time	ground_force_vx	ground_force_vy	ground_force_vz	ground_force_px	ground_force_py	ground_force_pz	l_ground_force_vx	l_ground_force_vy	l_ground_force_vz	l_ground_force_px	l_ground_force_py	l_ground_force_pz	ground_torque_x	ground_torque_y	ground_torque_z	l_ground_torque_x	l_ground_torque_y	l_ground_torque_z
0.2795	-0.0	-0.0	-0.0	-6.038994312286377	-0.8021736145019531	-642.0811767578125	-0.0	-0.0	-0.0	-0.0	-0.0	-0.0	-0.0	-0.0	-0.0	-0.0	-0.0	-0.0
0.28	-0.0	-0.0	-0.0	-5.764204025268555	-1.2275919914245603	-643.4656372070312	-0.0	-0.0	-0.0	-0.0	-0.0	-0.0	-0.0	-0.0	-0.0	-0.0	-0.0	-0.0
0.2805	-0.0	-0.0	-0.0	-4.57716178894043	-1.8855935335159304	-641.6193237304688	-0.0	-0.0	-0.0	-0.0	-0.0	-0.0	-0.0	-0.0	-0.0	-0.0	-0.0	-0.0
0.281	-0.0	-0.0	-0.0	-4.261281490325928	-2.86553168296814	-643.8470458984375	-0.0	-0.0	-0.0	-0.0	-0.0	-0.0	-0.0	-0.0	-0.0	-0.0	-0.0	-0.0
0.28150000000000003	-0.0	-0.0	-0.0	-3.492311716079712	-3.2493131160736084	-643.4678955078125	-0.0	-0.0	-0.0	-0.0	-0.0	-0.0	-0.0	-0.0	-0.0	-0.0	-0.0	-0.0
0.28200000000000003	-0.0	-0.0	-0.0	-3.356060743331909	-3.140878200531006	-647.1849975585938	-0.0	-0.0	-0.0	-0.0	-0.0	-0.0	-0.0	-0.0	-0.0	-0.0	-0.0	-0.0
0.28250000000000003	-0.0	-0.0	-0.0	-2.6209237575531006	-3.3654019832611084	-647.3787841796875	-0.0	-0.0	-0.0	-0.0	-0.0	-0.0	-0.0	-0.0	-0.0	-0.0	-0.0	-0.0
0.28300000000000003	-0.0	-0.0	-0.0	-2.079582691192627	-3.44836974143982	-648.085205078125	-0.0	-0.0	-0.0	-0.0	-0.0	-0.0	-0.0	-0.0	-0.0	-0.0	-0.0	-0.0
0.28350000000000003	-0.0	-0.0	-0.0	-1.5444023609161377	-3.537417411804199	-647.51171875	-0.0	-0.0	-0.0	-0.0	-0.0	-0.0	-0.0	-0.0	-0.0	-0.0	-0.0	-0.0
0.28400000000000003	-0.0	-0.0	-0.0	-1.2154749631881714	-3.7825169563293457	-647.8201293945312	-0.0	-0.0	-0.0	-0.0	-0.0	-0.0	-0.0	-0.0	-0.0	-0.0	-0.0	-0.0
0.28450000000000003	-0.0	-0.0	-0.0	-0.6082019209861755	-4.010868072509766	-647.885498046875	-0.0	-0.0	-0.0	-0.0	-0.0	-0.0	-0.0	-0.0	-0.0	-0.0	-0.0	-0.0
0.28500000000000003	-0.0	-0.0	-0.0	-0.680496871471405	-4.250272750854492	-648.7505493164062	-0.0	-0.0	-0.0	-0.0	-0.0	-0.0	-0.0	-0.0	-0.0	-0.0	-0.0	-0.0
0.28550000000000003	-0.0	-0.0	-0.0	-0.7367019057273865	-4.841073513031006	-648.9937133789062	-0.0	-0.0	-0.0	-0.0	-0.0	-0.0	-0.0	-0.0	-0.0	-0.0	-0.0	-0.0
0.28600000000000003	-0.0	-0.0	-0.0	-1.643510818481445	-5.319709300994873	-651.9156494140625	-0.0	-0.0	-0.0	-0.0	-0.0	-0.0	-0.0	-0.0	-0.0	-0.0	-0.0	-0.0
0.28650000000000003	-0.0	-0.0	-0.0	-2.6009409427642822	-5.643389701843262	-647.8253173828125	-0.0	-0.0	-0.0	-0.0	-0.0	-0.0	-0.0	-0.0	-0.0	-0.0	-0.0	-0.0
0.28700000000000003	-0.0	-0.0	-0.0	-3.479209899902344	-5.7607831954956055	-648.6796875	-0.0	-0.0	-0.0	-0.0	-0.0	-0.0	-0.0	-0.0	-0.0	-0.0	-0.0	-0.0
0.28750000000000003	-0.0	-0.0	-0.0	-4.525638580322266	-5.586913585662842	-650.4285278320312	-0.0	-0.0	-0.0	-0.0	-0.0	-0.0	-0.0	-0.0	-0.0	-0.0	-0.0	-0.0
0.28800000000000003	-0.0	-0.0	-0.0	-5.9487175941467285	-5.882606506347656	-651.616943359375	-0.0	-0.0	-0.0	-0.0	-0.0	-0.0	-0.0	-0.0	-0.0	-0.0	-0.0	-0.0
0.2885	-0.0	-0.0	-0.0	-6.427070617675781	-5.586808681488037	-653.8951416015625	-0.0	-0.0	-0.0	-0.0	-0.0	-0.0	-0.0	-0.0	-0.0	-0.0	-0.0	-0.0
0.289	-0.0	-0.0	-0.0	-7.17268705368042	-6.064529895782471	-654.0892333984375	-0.0	-0.0	-0.0	-0.0	-0.0	-0.0	-0.0	-0.0	-0.0	-0.0	-0.0	-0.0
0.2895	-0.0	-0.0	-0.0	-7.5508317947387695	-5.911155223846436	-654.3154907226562	-0.0	-0.0	-0.0	-0.0	-0.0	-0.0	-0.0	-0.0	-0.0	-0.0	-0.0	-0.0
0.29	-0.0	-0.0	-0.0	-8.42092227935791	-6.363361358642578	-655.1488037109375	-0.0	-0.0	-0.0	-0.0	-0.0	-0.0	-0.0	-0.0	-0.0	-0.0	-0.0	-0.0
0.2905	-0.0	-0.0	-0.0	-8.592911720275879	-5.997313022613525	-656.2206420898438	-0.0	-0.0	-0.0	-0.0	-0.0	-0.0	-0.0	-0.0	-0.0	-0.0	-0.0	-0.0
0.291	-0.0	-0.0	-0.0	-9.004324913024902	-6.538206577301025	-656.082763671875	-0.0	-0.0	-0.0	-0.0	-0.0	-0.0	-0.0	-0.0	-0.0	-0.0	-0.0	-0.0
0.2915	-0.0	-0.0	-0.0	-9.369823455810549	-6.569562911987305	-657.5994873046875	-0.0	-0.0	-0.0	-0.0	-0.0	-0.0	-0.0	-0.0	-0.0	-0.0	-0.0	-0.0
0.292	-0.0	-0.0	-0.0	-8.858132362365723	-6.509100914001465	-657.2576293945312	-0.0	-0.0	-0.0	-0.0	-0.0	-0.0	-0.0	-0.0	-0.0	-0.0	-0.0	-0.0
0.2925	-0.0	-0.0	-0.0	-9.217617988586426	-6.275245666503906	-655.8646850585938	-0.0	-0.0	-0.0	-0.0	-0.0	-0.0	-0.0	-0.0	-0.0	-0.0	-0.0	-0.0
0.293	-0.0	-0.0	-0.0	-9.335928916931152	-5.942745208740234	-654.6721801757812	-0.0	-0.0	-0.0	-0.0	-0.0	-0.0	-0.0	-0.0	-0.0	-0.0	-0.0	-0.0
0.2935	-0.0	-0.0	-0.0	-10.377482414245604	-5.495029449462891	-655.4940185546875	-0.0	-0.0	-0.0	-0.0	-0.0	-0.0	-0.0	-0.0	-0.0	-0.0	-0.0	-0.0
0.294	-0.0	-0.0	-0.0	-10.852765083312988	-5.022192478179932	-654.082275390625	-0.0	-0.0	-0.0	-0.0	-0.0	-0.0	-0.0	-0.0	-0.0	-0.0	-0.0	-0.0
0.2945	-0.0	-0.0	-0.0	-11.152902603149414	-4.399746417999268	-652.54833984375	-0.0	-0.0	-0.0	-0.0	-0.0	-0.0	-0.0	-0.0	-0.0	-0.0	-0.0	-0.0
0.295	-0.0	-0.0	-0.0	-11.569567680358888	-3.5316336154937744	-652.317626953125	-0.0	-0.0	-0.0	-0.0	-0.0	-0.0	-0.0	-0.0	-0.0	-0.0	-0.0	-0.0
0.2955	-0.0	-0.0	-0.0	-11.653626441955566	-3.833811283111572	-651.5056762695312	-0.0	-0.0	-0.0	-0.0	-0.0	-0.0	-0.0	-0.0	-0.0	-0.0	-0.0	-0.0
0.296	-0.0	-0.0	-0.0	-12.311050415039062	-3.1479077339172363	-650.6778564453125	-0.0	-0.0	-0.0	-0.0	-0.0	-0.0	-0.0	-0.0	-0.0	-0.0	-0.0	-0.0
0.2965	-0.0	-0.0	-0.0	-12.074639320373535	-3.2978248596191406	-650.9176635742188	-0.0	-0.0	-0.0	-0.0	-0.0	-0.0	-0.0	-0.0	-0.0	-0.0	-0.0	-0.0
0.297	-0.0	-0.0	-0.0	-12.252646446228027	-3.2099766731262207	-648.9033813476562	-0.0	-0.0	-0.0	-0.0	-0.0	-0.0	-0.0	-0.0	-0.0	-0.0	-0.0	-0.0
0.2975	-0.0	-0.0	-0.0	-11.89456558227539	-2.584781646728516	-648.91064453125	-0.0	-0.0	-0.0	-0.0	-0.0	-0.0	-0.0	-0.0	-0.0	-0.0	-0.0	-0.0
0.298	-0.0	-0.0	-0.0	-11.805438041687012	-1.8717384338378904	-644.7891845703125	-0.0	-0.0	-0.0	-0.0	-0.0	-0.0	-0.0	-0.0	-0.0	-0.0	-0.0	-0.0
0.2985	-0.0	-0.0	-0.0	-12.400341033935549	-0.8615407347679138	-644.0816040039062	-0.0	-0.0	-0.0	-0.0	-0.0	-0.0	-0.0	-0.0	-0.0	-0.0	-0.0	-0.0
0.299	-0.0	-0.0	-0.0	-11.77584457397461	-0.1188594251871109	-643.8470458984375	-0.0	-0.0	-0.0	-0.0	-0.0	-0.0	-0.0	-0.0	-0.0	-0.0	-0.0	-0.0
0.2995	-0.0	-0.0	-0.0	-11.508460998535156	0.3264050483703613	-643.6131591796875	-0.0	-0.0	-0.0	-0.0	-0.0	-0.0	-0.0	-0.0	-0.0	-0.0	-0.0	-0.0
0.3	-0.0	-0.0	-0.0	-11.27085018157959	0.8605645895004272	-643.4990844726562	-0.0	-0.0	-0.0	-0.0	-0.0	-0.0	-0.0	-0.0	-0.0	-0.0	-0.0	-0.0
0.3005	-0.0	-0.0	-0.0	-10.765178680419922	1.7526761293411257	-642.431640625	-0.0	-0.0	-0.0	-0.0	-0.0	-0.0	-0.0	-0.0	-0.0	-0.0	-0.0	-0.0
0.301	-0.0	-0.0	-0.0	-10.764430046081545	1.603433609008789	-641.8396606445312	-0.0	-0.0	-0.0	-0.0	-0.0	-0.0	-0.0	-0.0	-0.0	-0.0	-0.0	-0.0
0.3015	-0.0	-0.0	-0.0	-10.494551658630373	1.6043472290039062	-639.8428955078125	-0.0	-0.0	-0.0	-0.0	-0.0	-0.0	-0.0	-0.0	-0.0	-0.0	-0.0	-0.0
0.302	-0.0	-0.0	-0.0	-9.903708457946776	1.6633206605911257	-638.897216796875	-0.0	-0.0	-0.0	-0.0	-0.0	-0.0	-0.0	-0.0	-0.0	-0.0	-0.0	-0.0
0.3025	-0.0	-0.0	-0.0	-9.308122634887695	1.0968153476715088	-637.7349853515625	-0.0	-0.0	-0.0	-0.0	-0.0	-0.0	-0.0	-0.0	-0.0	-0.0	-0.0	-0.0
0.303	-0.0	-0.0	-0.0	-8.328462600708008	1.2478256225585938	-636.66357421875	-0.0	-0.0	-0.0	-0.0	-0.0	-0.0	-0.0	-0.0	-0.0	-0.0	-0.0	-0.0
0.3035	-0.0	-0.0	-0.0	-8.000449180603027	1.1586952209472656	-635.2431640625	-0.0	-0.0	-0.0	-0.0	-0.0	-0.0	-0.0	-0.0	-0.0	-0.0	-0.0	-0.0
0.304	-0.0	-0.0	-0.0	-7.615347385406494	0.5914879441261292	-634.4315795898438	-0.0	-0.0	-0.0	-0.0	-0.0	-0.0	-0.0	-0.0	-0.0	-0.0	-0.0	-0.0
0.3045	-0.0	-0.0	-0.0	-7.16947603225708	0.9413127899169922	-632.5538940429688	-0.0	-0.0	-0.0	-0.0	-0.0	-0.0	-0.0	-0.0	-0.0	-0.0	-0.0	-0.0
0.305	-0.0	-0.0	-0.0	-7.052474498748779	0.6471695899963379	-631.2631225585938	-0.0	-0.0	-0.0	-0.0	-0.0	-0.0	-0.0	-0.0	-0.0	-0.0	-0.0	-0.0
0.3055	-0.0	-0.0	-0.0	-7.254083633422852	0.532227635383606	-630.0628662109375	-0.0	-0.0	-0.0	-0.0	-0.0	-0.0	-0.0	-0.0	-0.0	-0.0	-0.0	-0.0
0.306	-0.0	-0.0	-0.0	-7.48526668548584	0.476296454668045	-627.4793090820312	-0.0	-0.0	-0.0	-0.0	-0.0	-0.0	-0.0	-0.0	-0.0	-0.0	-0.0	-0.0
0.3065	-0.0	-0.0	-0.0	-7.284514904022217	0.2613346576690674	-625.6033935546875	-0.0	-0.0	-0.0	-0.0	-0.0	-0.0	-0.0	-0.0	-0.0	-0.0	-0.0	-0.0
0.307	-0.0	-0.0	-0.0	-7.466056823730469	0.0986208319664001	-622.9000244140625	-0.0	-0.0	-0.0	-0.0	-0.0	-0.0	-0.0	-0.0	-0.0	-0.0	-0.0	-0.0
